<svg xmlns="http://www.w3.org/2000/svg" xmlns:xlink="http://www.w3.org/1999/xlink" width="60" height="60" viewBox="0 0 60 60">
  <defs>
    <clipPath id="clip-path">
      <circle id="Ellipse_2908" data-name="Ellipse 2908" cx="30" cy="30" r="30" transform="translate(452.861 3605.861)" fill="#e0ecf7"/>
    </clipPath>
    <clipPath id="clip-path-2">
      <rect id="Rectangle_9175" data-name="Rectangle 9175" width="68" height="68" transform="translate(1387.69 4850.69)" fill="#dfdff6"/>
    </clipPath>
    <linearGradient id="linear-gradient" x1="0.5" x2="0.5" y2="1" gradientUnits="objectBoundingBox">
      <stop offset="0" stop-color="#2772ff"/>
      <stop offset="1" stop-color="#1129a0"/>
    </linearGradient>
  </defs>
  <g id="Group_18211" data-name="Group 18211" transform="translate(-987 -2768)">
    <g id="Group_18086" data-name="Group 18086" transform="translate(767 -2676)">
      <circle id="Ellipse_2905" data-name="Ellipse 2905" cx="30" cy="30" r="30" transform="translate(220 5444)" fill="#f4f8ff"/>
      <g id="Mask_Group_970" data-name="Mask Group 970" transform="translate(-232.861 1838.139)" clip-path="url(#clip-path)">
        <g id="Mask_Group_969" data-name="Mask Group 969" transform="translate(-939.828 -1246.828)" clip-path="url(#clip-path-2)">
          <g id="Credit_Worthiness_Evaluation" data-name="Credit Worthiness Evaluation" transform="translate(1384.84 4846.478)">
            <g id="Apply_Loan" data-name="Apply Loan" transform="translate(17.508 21.192)">
              <path id="Path_16275" data-name="Path 16275" d="M9,9.327A3.327,3.327,0,0,1,12.327,6H35.138a3.327,3.327,0,0,1,3.327,3.327v39.92a3.327,3.327,0,0,1-3.327,3.327H12.327A3.327,3.327,0,0,1,9,49.247Z" transform="translate(-8.657 -5.98)" fill-rule="evenodd" fill="url(#linear-gradient)"/>
              <path id="Path_16277" data-name="Path 16277" d="M12.327,6.95A2.376,2.376,0,0,0,9.95,9.327V45.92H37.515V9.327A2.376,2.376,0,0,0,35.138,6.95h-4.08l-.991.991a.533.533,0,0,0-.156.377A1.483,1.483,0,0,1,28.427,9.8H19.038a1.483,1.483,0,0,1-1.483-1.483.533.533,0,0,0-.156-.377l-.991-.991Zm5.425,0,.319.319A1.483,1.483,0,0,1,18.5,8.319a.533.533,0,0,0,.533.533h9.389a.533.533,0,0,0,.533-.533,1.483,1.483,0,0,1,.434-1.049l.319-.319Zm19.763,39.92H9.95v2.376a2.376,2.376,0,0,0,2.376,2.376H35.138a2.376,2.376,0,0,0,2.376-2.376ZM9,9.327A3.327,3.327,0,0,1,12.327,6H35.138a3.327,3.327,0,0,1,3.327,3.327v39.92a3.327,3.327,0,0,1-3.327,3.327H12.327A3.327,3.327,0,0,1,9,49.247Z" transform="translate(-9 -6)" fill="none" fill-rule="evenodd"/>
              <path id="Path_16286" data-name="Path 16286" d="M21.5,51.475A.475.475,0,0,1,21.975,51h4.752a.475.475,0,1,1,0,.95H21.975A.475.475,0,0,1,21.5,51.475Z" transform="translate(-9.619 -8.228)" fill="#aec6ff" fill-rule="evenodd"/>
              <path id="Path_105967" data-name="Path 105967" d="M21.5,51.737A.715.715,0,0,1,22.192,51h6.917a.738.738,0,0,1,0,1.473H22.192A.715.715,0,0,1,21.5,51.737Z" transform="translate(-10.918 -47.936)" fill="#aec6ff" fill-rule="evenodd"/>
              <path id="Path_16287" data-name="Path 16287" d="M26,34.426A1.426,1.426,0,0,1,27.426,33h4.752A1.426,1.426,0,0,1,33.6,34.426v4.752A1.426,1.426,0,0,1,32.178,40.6H27.426A1.426,1.426,0,0,1,26,39.178Zm1.426-.475a.475.475,0,0,0-.475.475v4.752a.475.475,0,0,0,.475.475h4.752a.475.475,0,0,0,.475-.475V34.426a.475.475,0,0,0-.475-.475Z" transform="translate(-9.842 -7.337)" fill="none" fill-rule="evenodd"/>
              <path id="Path_16288" data-name="Path 16288" d="M26,21.926A1.426,1.426,0,0,1,27.426,20.5h4.752A1.426,1.426,0,0,1,33.6,21.926v4.752A1.426,1.426,0,0,1,32.178,28.1H27.426A1.426,1.426,0,0,1,26,26.678Zm1.426-.475a.475.475,0,0,0-.475.475v4.752a.475.475,0,0,0,.475.475h4.752a.475.475,0,0,0,.475-.475V21.926a.475.475,0,0,0-.475-.475Z" transform="translate(-9.842 -6.718)" fill="none" fill-rule="evenodd"/>
              <path id="Path_16289" data-name="Path 16289" d="M15.5,21.926A1.426,1.426,0,0,1,16.926,20.5h4.752A1.426,1.426,0,0,1,23.1,21.926v4.752A1.426,1.426,0,0,1,21.678,28.1H16.926A1.426,1.426,0,0,1,15.5,26.678Zm1.426-.475a.475.475,0,0,0-.475.475v4.752a.475.475,0,0,0,.475.475h4.752a.475.475,0,0,0,.475-.475V21.926a.475.475,0,0,0-.475-.475Z" transform="translate(-9.322 -6.718)" fill="none" fill-rule="evenodd"/>
              <path id="Path_16290" data-name="Path 16290" d="M15.5,34.426A1.426,1.426,0,0,1,16.926,33h4.752A1.426,1.426,0,0,1,23.1,34.426v4.752A1.426,1.426,0,0,1,21.678,40.6H16.926A1.426,1.426,0,0,1,15.5,39.178Zm1.426-.475a.475.475,0,0,0-.475.475v4.752a.475.475,0,0,0,.475.475h4.752a.475.475,0,0,0,.475-.475V34.426a.475.475,0,0,0-.475-.475Z" transform="translate(-9.322 -7.337)" fill="none" fill-rule="evenodd"/>
            </g>
            <path id="Path_105507" data-name="Path 105507" d="M41.29,48.887h-26.4A1.887,1.887,0,0,1,13,47V31.889A1.887,1.887,0,0,1,14.886,30h26.4a1.887,1.887,0,0,1,1.886,1.889V47A1.887,1.887,0,0,1,41.29,48.887Z" transform="translate(19.416 4.255)" fill="#aec6ff"/>
            <path id="Path_105966" data-name="Path 105966" d="M.145-.019l30.188.04v3.41L.145,3.391Z" transform="translate(32.268 38.662)" fill="url(#linear-gradient)"/>
          </g>
        </g>
      </g>
    </g>
  </g>
</svg>
