<svg xmlns="http://www.w3.org/2000/svg" xmlns:xlink="http://www.w3.org/1999/xlink" width="60" height="60" viewBox="0 0 60 60">
  <defs>
    <clipPath id="clip-path">
      <circle id="Ellipse_2908" data-name="Ellipse 2908" cx="30" cy="30" r="30" transform="translate(452.861 3605.861)" fill="#e0ecf7"/>
    </clipPath>
    <clipPath id="clip-path-2">
      <rect id="Rectangle_9175" data-name="Rectangle 9175" width="68" height="68" transform="translate(1387.69 4850.69)" fill="#dfdff6"/>
    </clipPath>
    <linearGradient id="linear-gradient" x1="0.5" x2="0.5" y2="1" gradientUnits="objectBoundingBox">
      <stop offset="0" stop-color="#2772ff"/>
      <stop offset="1" stop-color="#1129a0"/>
    </linearGradient>
  </defs>
  <g id="Group_18210" data-name="Group 18210" transform="translate(-673 -2768)">
    <g id="Group_18072" data-name="Group 18072" transform="translate(453 -2676)">
      <circle id="Ellipse_2905" data-name="Ellipse 2905" cx="30" cy="30" r="30" transform="translate(220 5444)" fill="#f4f8ff"/>
      <g id="Mask_Group_970" data-name="Mask Group 970" transform="translate(-232.861 1838.139)" clip-path="url(#clip-path)">
        <g id="Mask_Group_969" data-name="Mask Group 969" transform="translate(-939.828 -1246.828)" clip-path="url(#clip-path-2)">
          <g id="Working_Capital_Needs" data-name="Working Capital Needs" transform="translate(1394.491 4860.095)">
            <path id="Path_103670" data-name="Path 103670" d="M24.418,30.534l.214-.574Zm-.788.361-.575-.214Zm2.343.218-.214.575Zm.36.789.575.214Zm4.576,4.257.255.558h0Zm.812.3.558-.255h0Zm.69,1.509.558-.255h0Zm-.3.813-.255-.558h0Zm.226,6.246.214-.574Zm.361.789-.575-.214Zm-.579,1.555.574.214Zm-.789.36-.214.575Zm-4.257,4.576-.558.255h0Zm-.3.813.255.558h0Zm-1.509.69-.255-.558h0Zm-.813-.3.558-.255h0Zm-6.246.226.574.214Zm-.789.361-.214.574Zm-1.555-.579.214-.575Zm-4.937-5.045-.255-.558h0Zm-.813-.3-.558.255h0Zm-.69-1.509.558-.255h0Zm.3-.813.255.558h0ZM9.5,39.6l.214-.575Zm5.264-7.28-.558.255Zm.3-.813-.255-.558h0Zm1.509-.69.255.558h0Zm.813.3-.558.255h0ZM22.7,33.107l.117-.6Zm.14-.078-.575-.214Zm-7.172,1.517.343.508Zm.044-.154.558-.255Zm-4,6.143-.6-.117Zm-.078-.14.214-.574Zm1.517,7.171.508-.343Zm-.154-.044-.255-.558Zm17.13-3.429.6.117Zm.078.14-.214.574ZM11.794,44.9l.255.558Zm.068-.145-.592.16Zm6.469-11.562.558-.255Zm.145.068-.16-.592Zm.661,18.262-.117.6ZM19,51.6l.575.214Zm9.687-14.538.508-.343Zm.154.044-.255-.558Zm-12.6,13.337-.305.532ZM12.788,37.637l.532.305ZM26.169,50.083l.343.508Zm-.044.154.558-.255Zm3.07-3.3-.214.575Zm-.15.055-.532-.305ZM23.5,51.436l-.558.255Zm-.145-.068.16.592ZM30.038,39.73l-.255-.558Zm-.068.145.592-.16Zm-4.432-5.839.575.214Zm.055.15-.305.532Zm-.961-4.226a1.226,1.226,0,0,0-1.577.721l1.149.428h0Zm1.555.579-1.555-.579L24.2,31.109l1.555.579Zm.721,1.577a1.226,1.226,0,0,0-.721-1.577l-.428,1.149h0Zm-.795,2.134.795-2.134-1.149-.428-.795,2.134Zm3.079,2.469A9.941,9.941,0,0,0,25.9,33.654l-.61,1.064a8.713,8.713,0,0,1,2.888,2.687ZM30.655,35.6l-2.072.947.51,1.115,2.072-.947Zm1.625.605a1.226,1.226,0,0,0-1.625-.605l.51,1.115h0Zm.69,1.509-.69-1.509-1.115.51.69,1.509Zm-.605,1.625a1.226,1.226,0,0,0,.605-1.625l-1.115.51h0Zm-2.072.947,2.072-.947-.51-1.115-2.072.947Zm.433,3.924a9.94,9.94,0,0,0-.163-4.5l-1.184.32a8.715,8.715,0,0,1,.143,3.942Zm1.824.243-2.134-.795-.428,1.149,2.134.795Zm.721,1.577a1.226,1.226,0,0,0-.721-1.577L32.122,45.6h0Zm-.579,1.555.579-1.555L32.122,45.6l-.579,1.555Zm-1.577.721a1.226,1.226,0,0,0,1.577-.721l-1.149-.428h0Zm-2.134-.795,2.134.795.428-1.149-2.134-.795Zm-2.469,3.079A9.941,9.941,0,0,0,29.576,47.3l-1.064-.61a8.713,8.713,0,0,1-2.687,2.888Zm-.944-.1.947,2.072,1.115-.51-.947-2.072Zm.947,2.072h0l.51,1.115a1.226,1.226,0,0,0,.605-1.625Zm0,0-1.509.69.51,1.115,1.509-.69Zm-1.509.69h0l-1.115.51a1.226,1.226,0,0,0,1.625.605Zm0,0-.947-2.072-1.115.51.947,2.072ZM19.02,52.124a9.94,9.94,0,0,0,4.5-.163l-.32-1.184a8.713,8.713,0,0,1-3.942.143Zm-.243,1.824.795-2.134-1.149-.428-.795,2.134Zm-1.577.721a1.226,1.226,0,0,0,1.577-.721l-1.149-.428h0Zm-1.555-.579,1.555.579.428-1.149-1.555-.579Zm-.721-1.577a1.226,1.226,0,0,0,.721,1.577l.428-1.149h0Zm.795-2.134-.795,2.134,1.149.428.795-2.134ZM12.64,47.91a9.939,9.939,0,0,0,3.294,3.065l.61-1.063a8.713,8.713,0,0,1-2.888-2.687Zm-1.462,1.118,2.072-.947-.51-1.115-2.072.947Zm-1.625-.605a1.226,1.226,0,0,0,1.625.605l-.51-1.115h0Zm-.69-1.509.69,1.509,1.115-.51L9.977,46.4Zm.605-1.625a1.226,1.226,0,0,0-.605,1.625l1.115-.51h0Zm2.072-.947-2.072.947.51,1.115,2.072-.947Zm-.433-3.923a9.941,9.941,0,0,0,.163,4.5l1.184-.32a8.714,8.714,0,0,1-.143-3.942Zm-1.824-.243,2.134.795.428-1.149L9.71,39.027ZM8.561,38.6a1.226,1.226,0,0,0,.721,1.577l.428-1.149h0Zm.579-1.555L8.561,38.6l1.149.428.579-1.555Zm1.577-.721a1.226,1.226,0,0,0-1.577.721l1.149.428h0Zm2.134.795-2.134-.795-.428,1.149,2.134.795Zm2.469-3.08a9.938,9.938,0,0,0-3.065,3.294l1.063.61a8.715,8.715,0,0,1,2.687-2.888Zm.944.1-.947-2.072-1.115.51.947,2.072Zm-.947-2.072h0l-.51-1.115a1.226,1.226,0,0,0-.605,1.625Zm0,0,1.509-.69-.51-1.115-1.509.69Zm1.509-.69h0l1.115-.51a1.226,1.226,0,0,0-1.625-.605Zm0,0,.947,2.072,1.115-.51-.947-2.072ZM22.812,32.5a9.939,9.939,0,0,0-4.5.163l.32,1.184a8.714,8.714,0,0,1,3.942-.143Zm.243-1.824-.795,2.134,1.149.428.795-2.134Zm-.477,3.027a.737.737,0,0,0,.831-.466l-1.149-.428a.489.489,0,0,1,.552-.31Zm-6.572,1.346a.737.737,0,0,0,.258-.917l-1.115.51a.489.489,0,0,1,.171-.609Zm-3.7,5.6a.737.737,0,0,0-.466-.831l-.428,1.149a.489.489,0,0,1-.31-.552Zm1.346,6.571a.737.737,0,0,0-.917-.258l.51,1.115a.489.489,0,0,1-.609-.171Zm15.866-3.247a.737.737,0,0,0,.466.831l.428-1.149a.489.489,0,0,1,.31.552Zm-17.473,1.48a.737.737,0,0,0,.4-.863l-1.184.32a.49.49,0,0,1,.269-.573Zm5.724-12.01a.737.737,0,0,0,.863.4l-.32-1.184a.489.489,0,0,1,.573.269Zm1.48,17.473a.737.737,0,0,0-.831.466l1.149.428a.489.489,0,0,1-.552.31Zm8.922-13.515a.737.737,0,0,0,.917.258l-.51-1.115a.489.489,0,0,1,.609.171Zm-11.308,13.4a.737.737,0,0,0-.324-.9l-.61,1.063a.489.489,0,0,1-.215-.6Zm-4.445-12.54a.737.737,0,0,0,.9-.324l-1.063-.61a.489.489,0,0,1,.6-.215Zm13.4,11.308a.737.737,0,0,0-.258.917l1.115-.51a.489.489,0,0,1-.171.609Zm3.583-3.212a.737.737,0,0,0-.9.324l1.064.61a.489.489,0,0,1-.6.215Zm-5.35,4.819a.737.737,0,0,0-.863-.4l.32,1.184a.489.489,0,0,1-.573-.269Zm5.725-12.009a.737.737,0,0,0-.4.862l1.184-.32a.489.489,0,0,1-.269.573Zm-4.819-5.35a.737.737,0,0,0,.324.9l.61-1.064a.489.489,0,0,1,.215.6Z" transform="translate(-6.885 -3.123)" fill="none"/>
            <g id="Group_15454" data-name="Group 15454" transform="translate(8.952 21.3)">
              <path id="Path_103671" data-name="Path 103671" d="M31.175,30.979a.937.937,0,0,1,1.2-.551l2.375.885a.937.937,0,0,1,.551,1.2l-1.214,3.26a.189.189,0,0,0,.084.23A14.251,14.251,0,0,1,38.9,40.4a.189.189,0,0,0,.235.067L42.3,39.021a.937.937,0,0,1,1.241.462l1.054,2.305a.937.937,0,0,1-.462,1.242l-3.165,1.447a.189.189,0,0,0-.1.221,14.252,14.252,0,0,1,.234,6.447.189.189,0,0,0,.119.214l3.26,1.214a.937.937,0,0,1,.551,1.2l-.885,2.375a.937.937,0,0,1-1.2.551L39.678,55.49a.189.189,0,0,0-.23.084A14.253,14.253,0,0,1,35.054,60.3a.189.189,0,0,0-.067.235L36.435,63.7a.937.937,0,0,1-.462,1.242l-2.305,1.054a.937.937,0,0,1-1.242-.462l-1.447-3.165a.189.189,0,0,0-.222-.1,14.252,14.252,0,0,1-6.446.234.189.189,0,0,0-.214.119l-1.214,3.261a.937.937,0,0,1-1.2.551L19.3,65.542a.937.937,0,0,1-.551-1.2l1.214-3.261a.189.189,0,0,0-.084-.23,14.252,14.252,0,0,1-4.723-4.394.189.189,0,0,0-.235-.067l-3.165,1.447a.937.937,0,0,1-1.242-.462L9.464,55.066a.937.937,0,0,1,.462-1.242l3.165-1.447a.189.189,0,0,0,.1-.221,14.248,14.248,0,0,1-.235-6.446.189.189,0,0,0-.119-.214L9.58,44.281a.937.937,0,0,1-.551-1.2L9.914,40.7a.937.937,0,0,1,1.2-.551l3.26,1.214a.189.189,0,0,0,.23-.084A14.253,14.253,0,0,1,19,36.558a.189.189,0,0,0,.067-.235l-1.447-3.165a.937.937,0,0,1,.462-1.242l2.305-1.054a.937.937,0,0,1,1.242.462l1.447,3.165a.189.189,0,0,0,.221.1,14.253,14.253,0,0,1,6.447-.234.189.189,0,0,0,.214-.119Z" transform="translate(-8.97 -30.369)" fill-rule="evenodd" fill="url(#linear-gradient)"/>
              <circle id="Ellipse_2906" data-name="Ellipse 2906" cx="7.494" cy="7.494" r="7.494" transform="translate(10.565 10.565)" fill="#fff"/>
              <circle id="Ellipse_2907" data-name="Ellipse 2907" cx="3.642" cy="3.642" r="3.642" transform="translate(14.417 14.418)" fill="#aec6ff"/>
            </g>
            <g id="Group_15455" data-name="Group 15455" transform="translate(22.567 4.258) rotate(-20)">
              <path id="Path_103671-2" data-name="Path 103671" d="M14.662.4a.618.618,0,0,1,.8-.364l1.569.584a.619.619,0,0,1,.364.8l-.8,2.153a.125.125,0,0,0,.055.152,9.41,9.41,0,0,1,3.118,2.9.125.125,0,0,0,.155.044l2.09-.956a.619.619,0,0,1,.82.305l.7,1.522a.619.619,0,0,1-.305.82l-2.09.956a.125.125,0,0,0-.068.146,9.411,9.411,0,0,1,.155,4.257.125.125,0,0,0,.079.141l2.153.8a.619.619,0,0,1,.364.8l-.584,1.569a.619.619,0,0,1-.8.364l-2.153-.8a.125.125,0,0,0-.152.055,9.411,9.411,0,0,1-2.9,3.118.125.125,0,0,0-.044.155l.956,2.09a.619.619,0,0,1-.305.82l-1.522.7a.619.619,0,0,1-.82-.305l-.956-2.09a.125.125,0,0,0-.146-.068,9.411,9.411,0,0,1-4.257.155.125.125,0,0,0-.141.079l-.8,2.153a.619.619,0,0,1-.8.364l-1.568-.584a.619.619,0,0,1-.364-.8l.8-2.153a.125.125,0,0,0-.055-.152,9.411,9.411,0,0,1-3.118-2.9.125.125,0,0,0-.155-.044l-2.09.956a.619.619,0,0,1-.82-.305l-.7-1.522a.619.619,0,0,1,.305-.82l2.09-.956a.125.125,0,0,0,.068-.146,9.408,9.408,0,0,1-.155-4.256.125.125,0,0,0-.079-.141L.4,9.186a.619.619,0,0,1-.364-.8L.623,6.822a.618.618,0,0,1,.8-.364l2.153.8a.125.125,0,0,0,.152-.055,9.412,9.412,0,0,1,2.9-3.119.125.125,0,0,0,.044-.155l-.956-2.09a.619.619,0,0,1,.305-.82l1.522-.7a.619.619,0,0,1,.82.305l.956,2.09a.125.125,0,0,0,.146.068,9.411,9.411,0,0,1,4.257-.155.125.125,0,0,0,.141-.079Z" fill-rule="evenodd" fill="url(#linear-gradient)"/>
              <circle id="Ellipse_2906-2" data-name="Ellipse 2906" cx="4.948" cy="4.948" r="4.948" transform="translate(6.976 6.976)" fill="#fff"/>
              <circle id="Ellipse_2907-2" data-name="Ellipse 2907" cx="2.405" cy="2.405" r="2.405" transform="translate(9.52 9.52)" fill="#aec6ff"/>
            </g>
          </g>
        </g>
      </g>
    </g>
  </g>
</svg>
