<svg xmlns="http://www.w3.org/2000/svg" xmlns:xlink="http://www.w3.org/1999/xlink" width="60" height="60" viewBox="0 0 60 60">
  <defs>
    <clipPath id="clip-path">
      <circle id="Ellipse_2904" data-name="Ellipse 2904" cx="30" cy="30" r="30" transform="translate(452.861 3605.861)" fill="#e0ecf7"/>
    </clipPath>
    <linearGradient id="linear-gradient" x1="0.5" x2="0.5" y2="1" gradientUnits="objectBoundingBox">
      <stop offset="0" stop-color="#2772ff"/>
      <stop offset="1" stop-color="#1129a0"/>
    </linearGradient>
  </defs>
  <g id="Group_18250" data-name="Group 18250" transform="translate(-988 -5833)">
    <g id="Group_15447" data-name="Group 15447" transform="translate(-181 676)">
      <circle id="Ellipse_2903" data-name="Ellipse 2903" cx="30" cy="30" r="30" transform="translate(1169 5157)" fill="#f4f8ff"/>
      <g id="Mask_Group_968" data-name="Mask Group 968" transform="translate(716.139 1551.139)" clip-path="url(#clip-path)">
        <g id="Group_15445" data-name="Group 15445" transform="translate(-572.826 2487.173)">
          <rect id="Rectangle_8624" data-name="Rectangle 8624" width="50" height="50" transform="translate(1030.688 1130.688)" fill="#ffd3d3" opacity="0"/>
          <g id="Apply_Loan" data-name="Apply Loan" transform="translate(1040.345 1132.668)">
            <path id="Path_16275" data-name="Path 16275" d="M9,9.327A3.327,3.327,0,0,1,12.327,6H35.138a3.327,3.327,0,0,1,3.327,3.327v39.92a3.327,3.327,0,0,1-3.327,3.327H12.327A3.327,3.327,0,0,1,9,49.247Z" transform="translate(-8.657 -5.98)" fill-rule="evenodd" fill="url(#linear-gradient)"/>
            <path id="Path_16277" data-name="Path 16277" d="M12.327,6.95A2.376,2.376,0,0,0,9.95,9.327V45.92H37.515V9.327A2.376,2.376,0,0,0,35.138,6.95h-4.08l-.991.991a.533.533,0,0,0-.156.377A1.483,1.483,0,0,1,28.427,9.8H19.038a1.483,1.483,0,0,1-1.483-1.483.533.533,0,0,0-.156-.377l-.991-.991Zm5.425,0,.319.319A1.483,1.483,0,0,1,18.5,8.319a.533.533,0,0,0,.533.533h9.389a.533.533,0,0,0,.533-.533,1.483,1.483,0,0,1,.434-1.049l.319-.319Zm19.763,39.92H9.95v2.376a2.376,2.376,0,0,0,2.376,2.376H35.138a2.376,2.376,0,0,0,2.376-2.376ZM9,9.327A3.327,3.327,0,0,1,12.327,6H35.138a3.327,3.327,0,0,1,3.327,3.327v39.92a3.327,3.327,0,0,1-3.327,3.327H12.327A3.327,3.327,0,0,1,9,49.247Z" transform="translate(-9 -6)" fill="none" fill-rule="evenodd"/>
            <path id="Path_103666" data-name="Path 103666" d="M26,34.219A1.219,1.219,0,0,1,27.219,33h4.063A1.219,1.219,0,0,1,32.5,34.219v4.063A1.219,1.219,0,0,1,31.281,39.5H27.219A1.219,1.219,0,0,1,26,38.281Z" transform="translate(-9.093 -18.98)" fill="#fff" fill-rule="evenodd"/>
            <path id="Path_16284" data-name="Path 16284" d="M15.5,34.219A1.219,1.219,0,0,1,16.719,33h4.063A1.219,1.219,0,0,1,22,34.219v4.063A1.219,1.219,0,0,1,20.781,39.5H16.719A1.219,1.219,0,0,1,15.5,38.281Z" transform="translate(-8.757 -8.98)" fill="#aec6ff" fill-rule="evenodd"/>
            <path id="Path_103667" data-name="Path 103667" d="M15.5,34.219A1.219,1.219,0,0,1,16.719,33h4.063A1.219,1.219,0,0,1,22,34.219v4.063A1.219,1.219,0,0,1,20.781,39.5H16.719A1.219,1.219,0,0,1,15.5,38.281Z" transform="translate(1.407 -8.98)" fill="#aec6ff" fill-rule="evenodd"/>
            <path id="Path_103668" data-name="Path 103668" d="M15.5,34.219A1.219,1.219,0,0,1,16.719,33h4.063A1.219,1.219,0,0,1,22,34.219v4.063A1.219,1.219,0,0,1,20.781,39.5H16.719A1.219,1.219,0,0,1,15.5,38.281Z" transform="translate(-8.757 -18.98)" fill="#aec6ff" fill-rule="evenodd"/>
            <path id="Path_16286" data-name="Path 16286" d="M21.5,51.475A.475.475,0,0,1,21.975,51h4.752a.475.475,0,1,1,0,.95H21.975A.475.475,0,0,1,21.5,51.475Z" transform="translate(-9.619 -8.228)" fill="#aec6ff" fill-rule="evenodd"/>
            <path id="Path_16287" data-name="Path 16287" d="M26,34.426A1.426,1.426,0,0,1,27.426,33h4.752A1.426,1.426,0,0,1,33.6,34.426v4.752A1.426,1.426,0,0,1,32.178,40.6H27.426A1.426,1.426,0,0,1,26,39.178Zm1.426-.475a.475.475,0,0,0-.475.475v4.752a.475.475,0,0,0,.475.475h4.752a.475.475,0,0,0,.475-.475V34.426a.475.475,0,0,0-.475-.475Z" transform="translate(-9.842 -7.337)" fill="none" fill-rule="evenodd"/>
            <path id="Path_16288" data-name="Path 16288" d="M26,21.926A1.426,1.426,0,0,1,27.426,20.5h4.752A1.426,1.426,0,0,1,33.6,21.926v4.752A1.426,1.426,0,0,1,32.178,28.1H27.426A1.426,1.426,0,0,1,26,26.678Zm1.426-.475a.475.475,0,0,0-.475.475v4.752a.475.475,0,0,0,.475.475h4.752a.475.475,0,0,0,.475-.475V21.926a.475.475,0,0,0-.475-.475Z" transform="translate(-9.842 -6.718)" fill="none" fill-rule="evenodd"/>
            <path id="Path_16289" data-name="Path 16289" d="M15.5,21.926A1.426,1.426,0,0,1,16.926,20.5h4.752A1.426,1.426,0,0,1,23.1,21.926v4.752A1.426,1.426,0,0,1,21.678,28.1H16.926A1.426,1.426,0,0,1,15.5,26.678Zm1.426-.475a.475.475,0,0,0-.475.475v4.752a.475.475,0,0,0,.475.475h4.752a.475.475,0,0,0,.475-.475V21.926a.475.475,0,0,0-.475-.475Z" transform="translate(-9.322 -6.718)" fill="none" fill-rule="evenodd"/>
            <path id="Path_16290" data-name="Path 16290" d="M15.5,34.426A1.426,1.426,0,0,1,16.926,33h4.752A1.426,1.426,0,0,1,23.1,34.426v4.752A1.426,1.426,0,0,1,21.678,40.6H16.926A1.426,1.426,0,0,1,15.5,39.178Zm1.426-.475a.475.475,0,0,0-.475.475v4.752a.475.475,0,0,0,.475.475h4.752a.475.475,0,0,0,.475-.475V34.426a.475.475,0,0,0-.475-.475Z" transform="translate(-9.322 -7.337)" fill="none" fill-rule="evenodd"/>
          </g>
        </g>
      </g>
    </g>
  </g>
</svg>
